<svg width="46" height="31" viewBox="0 0 46 31" fill="none" xmlns="http://www.w3.org/2000/svg">
<path d="M5.66941 16.9824L21.955 28.1809C22.1692 28.3277 22.4169 28.4019 22.6669 28.4011C22.8657 28.4005 23.0643 28.3524 23.2465 28.2568C23.6583 28.0392 23.9144 27.6122 23.9129 27.1472L23.8417 4.64729C23.8402 4.18229 23.5814 3.75686 23.1682 3.54192C22.7563 3.32572 22.2589 3.3598 21.8772 3.62476L5.6629 14.9262C5.32615 15.1622 5.12611 15.5466 5.12741 15.9566C5.12871 16.3666 5.33117 16.7497 5.66941 16.9824Z" fill="white"/>
<path d="M20.6678 16.4359L36.9533 27.6344C37.1675 27.7812 37.4153 27.8554 37.6653 27.8546C37.864 27.854 38.0626 27.8059 38.2448 27.7103C38.6566 27.4928 38.9128 27.0657 38.9113 26.6007L38.84 4.10081C38.8386 3.63581 38.5797 3.21038 38.1665 2.99543C37.7546 2.77924 37.2572 2.81331 36.8756 3.07827L20.6613 14.3797C20.3245 14.6157 20.1245 15.0001 20.1258 15.4101C20.1271 15.8201 20.3295 16.2032 20.6678 16.4359Z" fill="white"/>
</svg>
