<svg width="81" height="81" viewBox="0 0 81 81" fill="none" xmlns="http://www.w3.org/2000/svg">
<path fill-rule="evenodd" clip-rule="evenodd" d="M40.2535 80.6081C62.3448 80.5382 80.1966 62.5729 80.1267 40.4817C80.0567 18.3904 62.0915 0.538557 40.0002 0.608506C17.9089 0.678456 0.0571325 18.6437 0.127082 40.735C0.197031 62.8262 18.1623 80.6781 40.2535 80.6081ZM35.5108 27.5268L52.882 39.4714C53.2428 39.7196 53.4588 40.1282 53.4602 40.5655C53.4615 41.0029 53.2482 41.4129 52.889 41.6647L35.5937 53.719C35.1866 54.0016 34.6561 54.038 34.2167 53.8073C33.7759 53.5781 33.4998 53.1243 33.4982 52.6283L33.4223 28.6294C33.4207 28.1334 33.6939 27.6779 34.1332 27.4459C34.3275 27.3439 34.5394 27.2926 34.7514 27.2919C35.018 27.2911 35.2823 27.3702 35.5108 27.5268Z" fill="white"/>
</svg>
