<svg width="21" height="20" viewBox="0 0 21 20" fill="none" xmlns="http://www.w3.org/2000/svg">
<path d="M19.42 3.09446C18.8726 2.43203 18.1851 1.89927 17.4069 1.53454C16.6288 1.16982 15.7795 0.982223 14.9201 0.985261C13.4498 0.940674 12.0182 1.46132 10.9201 2.44008C9.82199 1.46122 8.39051 0.940446 6.92014 0.984901C6.06079 0.981786 5.21144 1.16931 4.43329 1.53396C3.65513 1.89861 2.96754 2.43132 2.42005 3.0937C1.467 4.24966 0.469902 6.34261 1.13075 9.75364C2.1855 15.2007 10.0963 19.671 10.4303 19.8541C10.5792 19.9371 10.7468 19.9807 10.9173 19.9807C11.0878 19.9807 11.2554 19.9371 11.4043 19.8541C11.7403 19.6671 19.6515 15.1975 20.7047 9.75452C21.3699 6.34355 20.373 4.25051 19.42 3.09446ZM18.7458 9.37443C17.9996 13.2254 12.5774 16.8072 10.9194 17.8251C8.58345 16.415 3.77761 12.8748 3.09877 9.37373C2.58588 6.72771 3.28795 5.19074 3.96799 4.36677C4.32762 3.9329 4.7788 3.58399 5.28919 3.34507C5.79958 3.10616 6.35652 2.98316 6.92005 2.9849C7.52195 2.93979 8.12526 3.05141 8.67117 3.30889C9.21708 3.56636 9.68696 3.9609 10.035 4.45404C10.1208 4.61198 10.2474 4.74401 10.4016 4.83638C10.5558 4.92874 10.732 4.97806 10.9117 4.97919C11.0915 4.98032 11.2682 4.93322 11.4236 4.84281C11.5789 4.75239 11.7072 4.62197 11.795 4.46512C12.1424 3.96817 12.6133 3.57033 13.1613 3.31083C13.7093 3.05133 14.3155 2.93912 14.9201 2.98526C15.4848 2.98254 16.0431 3.10509 16.5547 3.34408C17.0664 3.58308 17.5187 3.93257 17.879 4.36739C18.557 5.19142 19.2589 6.72846 18.7458 9.37443Z" fill="#FF32C7"/>
</svg>
