<svg width="46" height="31" viewBox="0 0 46 31" fill="none" xmlns="http://www.w3.org/2000/svg">
<path d="M39.5843 14.2342L23.2988 3.03573C23.0846 2.88891 22.8368 2.81469 22.5868 2.81548C22.3881 2.81611 22.1895 2.86424 22.0073 2.95982C21.5955 3.17737 21.3393 3.60444 21.3408 4.06943L21.412 26.5693C21.4135 27.0343 21.6723 27.4598 22.0855 27.6747C22.4975 27.8909 22.9949 27.8568 23.3765 27.5919L39.5908 16.2905C39.9276 16.0544 40.1276 15.67 40.1263 15.26C40.125 14.85 39.9225 14.4669 39.5843 14.2342Z" fill="white"/>
<path d="M24.586 14.7807L8.30042 3.58221C8.0862 3.43539 7.83847 3.36118 7.58847 3.36197C7.38972 3.3626 7.19112 3.41073 7.00892 3.5063C6.59711 3.72386 6.34096 4.15092 6.34243 4.61592L6.41367 27.1158C6.41515 27.5808 6.67399 28.0062 7.08718 28.2212C7.49911 28.4374 7.99651 28.4033 8.37817 28.1383L24.5925 16.8369C24.9292 16.6009 25.1293 16.2165 25.128 15.8065C25.1267 15.3965 24.9242 15.0134 24.586 14.7807Z" fill="white"/>
</svg>
