<svg width="118" height="13" viewBox="0 0 118 13" fill="none" xmlns="http://www.w3.org/2000/svg">
<path opacity="0.4" d="M2.31445 5.13636C2.31445 4.67045 2.42809 4.24574 2.65536 3.86222C2.88263 3.47869 3.18803 3.1733 3.57156 2.94602C3.95508 2.71875 4.37979 2.60511 4.8457 2.60511C5.24911 2.60511 5.62127 2.69176 5.96218 2.86506C6.30593 3.03835 6.59002 3.27557 6.81445 3.5767C7.03889 3.875 7.17809 4.21307 7.23207 4.59091H6.20082C6.144 4.2983 5.98633 4.05966 5.72781 3.875C5.46928 3.6875 5.17525 3.59375 4.8457 3.59375C4.56161 3.59375 4.30309 3.66335 4.07014 3.80256C3.83718 3.94176 3.6511 4.12784 3.5119 4.3608C3.37269 4.59375 3.30309 4.85227 3.30309 5.13636C3.30309 5.42045 3.37269 5.67898 3.5119 5.91193C3.6511 6.14489 3.83718 6.33097 4.07014 6.47017C4.30309 6.60937 4.56161 6.67898 4.8457 6.67898C5.17525 6.67898 5.45366 6.58665 5.68093 6.40199C5.91104 6.21449 6.05593 5.97443 6.11559 5.68182H7.14684C7.09286 6.05966 6.96076 6.39915 6.75053 6.70028C6.54031 6.99858 6.27042 7.23437 5.94087 7.40767C5.61417 7.58097 5.24911 7.66761 4.8457 7.66761C4.37979 7.66761 3.95508 7.55398 3.57156 7.3267C3.18803 7.09943 2.88263 6.79403 2.65536 6.41051C2.42809 6.02699 2.31445 5.60227 2.31445 5.13636ZM4.80309 9.63636C4.18377 9.63636 3.60138 9.51989 3.05593 9.28693C2.51332 9.05398 2.03462 8.73153 1.61985 8.3196C1.20792 7.90483 0.884055 7.42614 0.64826 6.88352C0.415305 6.34091 0.300249 5.75852 0.30309 5.13636C0.30593 4.5142 0.423828 3.93182 0.656783 3.3892C0.892578 2.84659 1.21644 2.36932 1.62837 1.95739C2.04031 1.54261 2.51758 1.21875 3.06019 0.985795C3.60281 0.752841 4.18377 0.636364 4.80309 0.636364C5.42525 0.636364 6.00764 0.752841 6.55025 0.985795C7.0957 1.21875 7.57298 1.54261 7.98207 1.95739C8.394 2.36932 8.71644 2.84659 8.9494 3.3892C9.18235 3.93182 9.30025 4.5142 9.30309 5.13636C9.30593 5.75852 9.19087 6.34091 8.95792 6.88352C8.72496 7.42614 8.40252 7.90483 7.99059 8.3196C7.57866 8.73153 7.09996 9.05398 6.55451 9.28693C6.00906 9.51989 5.42525 9.63636 4.80309 9.63636ZM4.80309 8.64773C5.28889 8.64773 5.74485 8.55682 6.17099 8.375C6.59712 8.19318 6.9707 7.94176 7.29173 7.62074C7.61275 7.29972 7.86417 6.92756 8.04599 6.50426C8.22781 6.07812 8.31729 5.62358 8.31445 5.14062C8.31161 4.65483 8.21928 4.19886 8.03746 3.77273C7.85565 3.34659 7.60423 2.97301 7.2832 2.65199C6.96218 2.33097 6.59002 2.07955 6.16673 1.89773C5.74343 1.71591 5.28889 1.625 4.80309 1.625C4.32014 1.625 3.86701 1.71591 3.44371 1.89773C3.02042 2.07955 2.64826 2.33239 2.32724 2.65625C2.00621 2.97727 1.75337 3.35085 1.56871 3.77699C1.3869 4.20028 1.29457 4.65483 1.29173 5.14062C1.28889 5.62074 1.37837 6.07386 1.56019 6.5C1.74201 6.9233 1.99343 7.29545 2.31445 7.61648C2.63832 7.9375 3.0119 8.19034 3.43519 8.375C3.86133 8.55682 4.31729 8.64773 4.80309 8.64773ZM14.5733 9.5V8.73295L17.454 5.57955C17.7921 5.21023 18.0705 4.8892 18.2892 4.61648C18.508 4.34091 18.6699 4.08239 18.775 3.84091C18.883 3.59659 18.937 3.34091 18.937 3.07386C18.937 2.76705 18.8631 2.50142 18.7154 2.27699C18.5705 2.05256 18.3716 1.87926 18.1188 1.7571C17.8659 1.63494 17.5819 1.57386 17.2665 1.57386C16.9313 1.57386 16.6387 1.64347 16.3887 1.78267C16.1415 1.91903 15.9498 2.1108 15.8134 2.35795C15.6799 2.60511 15.6131 2.89489 15.6131 3.22727H14.6074C14.6074 2.71591 14.7253 2.26705 14.9611 1.88068C15.1969 1.49432 15.5179 1.19318 15.9242 0.977272C16.3333 0.761363 16.7921 0.653409 17.3006 0.653409C17.812 0.653409 18.2651 0.761363 18.66 0.977272C19.0549 1.19318 19.3645 1.48437 19.589 1.85085C19.8134 2.21733 19.9256 2.625 19.9256 3.07386C19.9256 3.39489 19.8674 3.70881 19.7509 4.01562C19.6373 4.3196 19.4384 4.65909 19.1543 5.03409C18.873 5.40625 18.4824 5.8608 17.9824 6.39773L16.0222 8.49432V8.5625H20.079V9.5H14.5733ZM24.6855 9.61932C24.0435 9.61932 23.4966 9.4446 23.0449 9.09517C22.5932 8.7429 22.248 8.23295 22.0094 7.56534C21.7708 6.89489 21.6515 6.08523 21.6515 5.13636C21.6515 4.19318 21.7708 3.38778 22.0094 2.72017C22.2509 2.04972 22.5975 1.53835 23.0492 1.18608C23.5037 0.830966 24.0492 0.653409 24.6855 0.653409C25.3219 0.653409 25.8659 0.830966 26.3176 1.18608C26.7722 1.53835 27.1188 2.04972 27.3574 2.72017C27.5989 3.38778 27.7196 4.19318 27.7196 5.13636C27.7196 6.08523 27.6003 6.89489 27.3617 7.56534C27.123 8.23295 26.7779 8.7429 26.3262 9.09517C25.8745 9.4446 25.3276 9.61932 24.6855 9.61932ZM24.6855 8.68182C25.3219 8.68182 25.8162 8.375 26.1685 7.76136C26.5208 7.14773 26.6969 6.27273 26.6969 5.13636C26.6969 4.38068 26.6159 3.73722 26.454 3.20597C26.2949 2.67472 26.0648 2.26989 25.7637 1.99148C25.4654 1.71307 25.106 1.57386 24.6855 1.57386C24.0549 1.57386 23.562 1.88494 23.2069 2.5071C22.8517 3.12642 22.6742 4.00284 22.6742 5.13636C22.6742 5.89205 22.7537 6.53409 22.9128 7.0625C23.0719 7.59091 23.3006 7.9929 23.5989 8.26847C23.9 8.54403 24.2623 8.68182 24.6855 8.68182ZM29.339 9.5V8.73295L32.2196 5.57955C32.5577 5.21023 32.8361 4.8892 33.0549 4.61648C33.2736 4.34091 33.4355 4.08239 33.5407 3.84091C33.6486 3.59659 33.7026 3.34091 33.7026 3.07386C33.7026 2.76705 33.6287 2.50142 33.481 2.27699C33.3361 2.05256 33.1373 1.87926 32.8844 1.7571C32.6316 1.63494 32.3475 1.57386 32.0321 1.57386C31.6969 1.57386 31.4043 1.64347 31.1543 1.78267C30.9071 1.91903 30.7154 2.1108 30.579 2.35795C30.4455 2.60511 30.3787 2.89489 30.3787 3.22727H29.373C29.373 2.71591 29.4909 2.26705 29.7267 1.88068C29.9625 1.49432 30.2836 1.19318 30.6898 0.977272C31.0989 0.761363 31.5577 0.653409 32.0662 0.653409C32.5776 0.653409 33.0307 0.761363 33.4256 0.977272C33.8205 1.19318 34.1301 1.48437 34.3546 1.85085C34.579 2.21733 34.6912 2.625 34.6912 3.07386C34.6912 3.39489 34.633 3.70881 34.5165 4.01562C34.4029 4.3196 34.204 4.65909 33.9199 5.03409C33.6387 5.40625 33.248 5.8608 32.748 6.39773L30.7878 8.49432V8.5625H34.8446V9.5H29.339ZM36.2125 7.71023V6.84091L40.0478 0.772727H40.6784V2.11932H40.2523L37.3546 6.70455V6.77273H42.5194V7.71023H36.2125ZM40.3205 9.5V7.44602V7.04119V0.772727H41.3262V9.5H40.3205ZM58.5879 4.66761V5.60511H46.5879V4.66761H58.5879ZM70.0424 3.5H68.9856C68.9231 3.19602 68.8137 2.92898 68.6575 2.69886C68.5041 2.46875 68.3166 2.27557 68.095 2.11932C67.8762 1.96023 67.6333 1.84091 67.3663 1.76136C67.0993 1.68182 66.8208 1.64205 66.5311 1.64205C66.0027 1.64205 65.524 1.77557 65.095 2.04261C64.6689 2.30966 64.3294 2.70312 64.0765 3.22301C63.8265 3.7429 63.7015 4.38068 63.7015 5.13636C63.7015 5.89205 63.8265 6.52983 64.0765 7.04972C64.3294 7.5696 64.6689 7.96307 65.095 8.23011C65.524 8.49716 66.0027 8.63068 66.5311 8.63068C66.8208 8.63068 67.0993 8.59091 67.3663 8.51136C67.6333 8.43182 67.8762 8.31392 68.095 8.15767C68.3166 7.99858 68.5041 7.80398 68.6575 7.57386C68.8137 7.34091 68.9231 7.07386 68.9856 6.77273H70.0424C69.9629 7.21875 69.818 7.6179 69.6078 7.97017C69.3976 8.32244 69.1362 8.62216 68.8237 8.86932C68.5112 9.11364 68.1603 9.29972 67.7711 9.42756C67.3848 9.5554 66.9714 9.61932 66.5311 9.61932C65.7868 9.61932 65.1248 9.4375 64.5453 9.07386C63.9657 8.71023 63.5098 8.19318 63.1774 7.52273C62.845 6.85227 62.6788 6.05682 62.6788 5.13636C62.6788 4.21591 62.845 3.42045 63.1774 2.75C63.5098 2.07955 63.9657 1.5625 64.5453 1.19886C65.1248 0.835227 65.7868 0.653409 66.5311 0.653409C66.9714 0.653409 67.3848 0.717329 67.7711 0.84517C68.1603 0.973011 68.5112 1.16051 68.8237 1.40767C69.1362 1.65199 69.3976 1.95028 69.6078 2.30256C69.818 2.65199 69.9629 3.05114 70.0424 3.5ZM74.2729 9.63636C73.682 9.63636 73.1635 9.49574 72.7175 9.21449C72.2743 8.93324 71.9277 8.53977 71.6777 8.03409C71.4306 7.52841 71.307 6.9375 71.307 6.26136C71.307 5.57955 71.4306 4.98437 71.6777 4.47585C71.9277 3.96733 72.2743 3.57244 72.7175 3.29119C73.1635 3.00994 73.682 2.86932 74.2729 2.86932C74.8638 2.86932 75.3809 3.00994 75.824 3.29119C76.2701 3.57244 76.6167 3.96733 76.8638 4.47585C77.1138 4.98437 77.2388 5.57955 77.2388 6.26136C77.2388 6.9375 77.1138 7.52841 76.8638 8.03409C76.6167 8.53977 76.2701 8.93324 75.824 9.21449C75.3809 9.49574 74.8638 9.63636 74.2729 9.63636ZM74.2729 8.73295C74.7218 8.73295 75.0911 8.6179 75.3809 8.38778C75.6706 8.15767 75.8851 7.85511 76.0243 7.48011C76.1635 7.10511 76.2331 6.69886 76.2331 6.26136C76.2331 5.82386 76.1635 5.41619 76.0243 5.03835C75.8851 4.66051 75.6706 4.35511 75.3809 4.12216C75.0911 3.8892 74.7218 3.77273 74.2729 3.77273C73.824 3.77273 73.4547 3.8892 73.165 4.12216C72.8752 4.35511 72.6607 4.66051 72.5215 5.03835C72.3823 5.41619 72.3127 5.82386 72.3127 6.26136C72.3127 6.69886 72.3823 7.10511 72.5215 7.48011C72.6607 7.85511 72.8752 8.15767 73.165 8.38778C73.4547 8.6179 73.824 8.73295 74.2729 8.73295ZM78.774 11.9545V2.95455H79.7456V3.99432H79.8649C79.9387 3.88068 80.041 3.7358 80.1717 3.55966C80.3052 3.38068 80.4956 3.22159 80.7427 3.08239C80.9927 2.94034 81.3308 2.86932 81.7569 2.86932C82.3081 2.86932 82.7939 3.0071 83.2143 3.28267C83.6348 3.55824 83.9629 3.94886 84.1987 4.45455C84.4345 4.96023 84.5524 5.55682 84.5524 6.24432C84.5524 6.9375 84.4345 7.53835 84.1987 8.04688C83.9629 8.55256 83.6362 8.9446 83.2186 9.22301C82.801 9.49858 82.3194 9.63636 81.774 9.63636C81.3535 9.63636 81.0169 9.56676 80.764 9.42756C80.5112 9.28551 80.3166 9.125 80.1802 8.94602C80.0439 8.7642 79.9387 8.61364 79.8649 8.49432H79.7797V11.9545H78.774ZM79.7626 6.22727C79.7626 6.72159 79.835 7.15767 79.9799 7.53551C80.1248 7.91051 80.3365 8.20455 80.6149 8.41761C80.8933 8.62784 81.2342 8.73295 81.6376 8.73295C82.0581 8.73295 82.4089 8.62216 82.6902 8.40057C82.9743 8.17614 83.1873 7.875 83.3294 7.49716C83.4743 7.11648 83.5467 6.69318 83.5467 6.22727C83.5467 5.76705 83.4757 5.35227 83.3336 4.98295C83.1944 4.6108 82.9828 4.31676 82.6987 4.10085C82.4174 3.8821 82.0637 3.77273 81.6376 3.77273C81.2285 3.77273 80.8848 3.87642 80.6064 4.08381C80.3279 4.28835 80.1177 4.57528 79.9757 4.9446C79.8336 5.31108 79.7626 5.73864 79.7626 6.22727ZM86.4998 11.9545C86.3294 11.9545 86.1774 11.9403 86.0439 11.9119C85.9103 11.8864 85.818 11.8608 85.7669 11.8352L86.0225 10.9489C86.2669 11.0114 86.4828 11.0341 86.6703 11.017C86.8578 11 87.024 10.9162 87.1689 10.7656C87.3166 10.6179 87.4515 10.3778 87.5737 10.0455L87.7612 9.53409L85.3407 2.95455H86.4316L88.2385 8.17045H88.3066L90.1135 2.95455H91.2044L88.426 10.4545C88.301 10.7926 88.1461 11.0724 87.9615 11.294C87.7768 11.5185 87.5623 11.6847 87.318 11.7926C87.0765 11.9006 86.8038 11.9545 86.4998 11.9545ZM92.5318 9.5V2.95455H93.5034V3.94318H93.5716C93.6909 3.61932 93.9068 3.35653 94.2193 3.15483C94.5318 2.95312 94.8841 2.85227 95.2761 2.85227C95.35 2.85227 95.4423 2.85369 95.5531 2.85653C95.6639 2.85937 95.7477 2.86364 95.8045 2.86932V3.89205C95.7704 3.88352 95.6923 3.87074 95.5701 3.85369C95.4508 3.83381 95.3244 3.82386 95.1909 3.82386C94.8727 3.82386 94.5886 3.89062 94.3386 4.02415C94.0914 4.15483 93.8954 4.33665 93.7505 4.5696C93.6085 4.79972 93.5375 5.0625 93.5375 5.35795V9.5H92.5318ZM96.9966 9.5V2.95455H98.0023V9.5H96.9966ZM97.508 1.86364C97.312 1.86364 97.1429 1.79688 97.0009 1.66335C96.8617 1.52983 96.7921 1.36932 96.7921 1.18182C96.7921 0.994318 96.8617 0.833807 97.0009 0.700284C97.1429 0.566761 97.312 0.5 97.508 0.5C97.704 0.5 97.8716 0.566761 98.0108 0.700284C98.1529 0.833807 98.2239 0.994318 98.2239 1.18182C98.2239 1.36932 98.1529 1.52983 98.0108 1.66335C97.8716 1.79688 97.704 1.86364 97.508 1.86364ZM102.486 12.0909C102.001 12.0909 101.583 12.0284 101.233 11.9034C100.884 11.7812 100.593 11.6193 100.36 11.4176C100.13 11.2188 99.9466 11.0057 99.8102 10.7784L100.611 10.2159C100.702 10.3352 100.817 10.4716 100.956 10.625C101.096 10.7812 101.286 10.9162 101.528 11.0298C101.772 11.1463 102.091 11.2045 102.486 11.2045C103.015 11.2045 103.451 11.0767 103.795 10.821C104.138 10.5653 104.31 10.1648 104.31 9.61932V8.28977H104.225C104.151 8.40909 104.046 8.55682 103.91 8.73295C103.776 8.90625 103.583 9.06108 103.33 9.19744C103.08 9.33097 102.742 9.39773 102.316 9.39773C101.787 9.39773 101.313 9.27273 100.893 9.02273C100.475 8.77273 100.144 8.40909 99.8997 7.93182C99.6582 7.45455 99.5375 6.875 99.5375 6.19318C99.5375 5.52273 99.6554 4.93892 99.8912 4.44176C100.127 3.94176 100.455 3.5554 100.876 3.28267C101.296 3.0071 101.782 2.86932 102.333 2.86932C102.759 2.86932 103.097 2.94034 103.347 3.08239C103.6 3.22159 103.793 3.38068 103.927 3.55966C104.063 3.7358 104.168 3.88068 104.242 3.99432H104.344V2.95455H105.316V9.6875C105.316 10.25 105.188 10.7074 104.932 11.0597C104.68 11.4148 104.339 11.6747 103.91 11.8395C103.483 12.0071 103.009 12.0909 102.486 12.0909ZM102.452 8.49432C102.856 8.49432 103.197 8.40199 103.475 8.21733C103.753 8.03267 103.965 7.76705 104.11 7.42045C104.255 7.07386 104.327 6.65909 104.327 6.17614C104.327 5.70455 104.256 5.28835 104.114 4.92756C103.972 4.56676 103.762 4.28409 103.483 4.07955C103.205 3.875 102.861 3.77273 102.452 3.77273C102.026 3.77273 101.671 3.88068 101.387 4.09659C101.106 4.3125 100.894 4.60227 100.752 4.96591C100.613 5.32955 100.543 5.73295 100.543 6.17614C100.543 6.63068 100.614 7.03267 100.756 7.3821C100.901 7.72869 101.114 8.00142 101.395 8.20028C101.68 8.39631 102.032 8.49432 102.452 8.49432ZM108.162 5.5625V9.5H107.157V0.772727H108.162V3.97727H108.248C108.401 3.6392 108.631 3.37074 108.938 3.17188C109.248 2.97017 109.66 2.86932 110.174 2.86932C110.62 2.86932 111.01 2.95881 111.346 3.13778C111.681 3.31392 111.941 3.58523 112.126 3.9517C112.313 4.31534 112.407 4.77841 112.407 5.34091V9.5H111.401V5.40909C111.401 4.8892 111.266 4.48722 110.996 4.20312C110.729 3.91619 110.358 3.77273 109.884 3.77273C109.555 3.77273 109.259 3.84233 108.998 3.98153C108.739 4.12074 108.535 4.32386 108.384 4.59091C108.236 4.85795 108.162 5.18182 108.162 5.5625ZM117.093 2.95455V3.80682H113.701V2.95455H117.093ZM114.69 1.38636H115.695V7.625C115.695 7.90909 115.737 8.12216 115.819 8.2642C115.904 8.40341 116.012 8.49716 116.143 8.54545C116.276 8.59091 116.417 8.61364 116.565 8.61364C116.676 8.61364 116.767 8.60795 116.838 8.59659C116.909 8.58239 116.965 8.57102 117.008 8.5625L117.213 9.46591C117.144 9.49148 117.049 9.51705 116.927 9.54261C116.805 9.57102 116.65 9.58523 116.463 9.58523C116.178 9.58523 115.9 9.52415 115.627 9.40199C115.357 9.27983 115.133 9.09375 114.954 8.84375C114.778 8.59375 114.69 8.27841 114.69 7.89773V1.38636Z" fill="#A9B1BC"/>
</svg>
